# Blender v2.69 (sub 0) OBJ File: ''
# www.blender.org
mtllib asteroid.mtl
o Cube
v 0.195872 -0.866169 0.176567
v 1.087507 -0.313388 0.702292
v -0.080516 -0.484178 1.142437
v -0.698554 -0.313384 0.176567
v -0.080516 -0.313389 -0.674082
v 0.919480 -0.313388 -0.349158
v 0.472260 0.437306 1.027216
v -0.527735 0.581051 0.702292
v -0.527735 0.581051 -0.349158
v 0.472260 0.581051 -0.674082
v 1.090299 0.581047 0.176567
v 0.195872 1.016221 -0.020375
v 0.033417 -0.716823 0.676562
v 0.621195 -0.716823 0.485578
v 0.458741 -0.391906 0.985579
v 1.046520 -0.391905 0.176567
v 0.621195 -0.716823 -0.132444
v -0.329857 -0.716820 0.176567
v -0.492317 -0.562694 0.791785
v 0.033417 -0.716823 -0.323428
v -0.492317 -0.391905 -0.323430
v 0.458741 -0.391906 -0.632445
v 1.314957 0.133831 0.485580
v 1.146930 0.133831 -0.132446
v 0.195872 0.133831 1.176567
v 0.951685 0.133831 0.985584
v -0.755185 0.133831 0.485580
v -0.391913 -0.036958 1.100804
v -0.391913 0.133831 -0.632450
v -0.755185 0.133831 -0.132446
v 0.783658 0.133831 -0.632450
v 0.195872 0.133831 -0.823433
v 0.884062 0.515823 0.676564
v -0.066996 0.361462 1.122501
v -0.654776 0.659567 0.176567
v -0.066996 0.659569 -0.632445
v 1.009194 0.659568 -0.323430
v 0.358328 0.325233 0.616543
v 0.846734 0.866873 -0.020375
v -0.229450 0.686379 0.622501
v -0.229450 0.984486 -0.132444
v 0.483460 0.984486 -0.323428
vt 0.556370 0.368017
vt 0.556370 0.467860
vt 0.463245 0.404022
vt 0.174811 0.695349
vt 0.231255 0.590132
vt 0.272208 0.695349
vt 0.557786 0.111587
vt 0.521781 0.204712
vt 0.457942 0.111587
vt 0.149755 0.938052
vt 0.049911 0.938052
vt 0.113751 0.844927
vt 0.558704 0.098286
vt 0.465579 0.062282
vt 0.558704 -0.001557
vt 0.274473 0.256399
vt 0.371869 0.256399
vt 0.298286 0.353363
vt 0.576346 0.478502
vt 0.283700 0.530036
vt 0.576346 0.602338
vt 0.359367 0.303326
vt 0.444234 0.208862
vt 0.444234 0.355923
vt 0.363225 0.204712
vt 0.363225 0.104867
vt 0.456353 0.168706
vt 0.284588 0.411405
vt 0.366940 0.354953
vt 0.366940 0.467860
vt 0.149755 0.750211
vt 0.113749 0.843338
vt 0.049910 0.750211
vt 0.360891 0.472007
vt 0.360891 0.595843
vt 0.275000 0.522916
vt 0.476979 0.903319
vt 0.476979 0.803475
vt 0.570104 0.867312
vt 0.368530 0.467860
vt 0.368530 0.368014
vt 0.461656 0.431853
vt 0.476977 0.702041
vt 0.570104 0.738047
vt 0.476977 0.801886
vt 0.349010 0.860395
vt 0.349010 0.960240
vt 0.274109 0.889906
vt 0.516910 0.722144
vt 0.516910 0.601367
vt 0.572173 0.699824
vt 0.503961 0.901905
vt 0.410836 0.865900
vt 0.503961 0.802061
vt 0.264884 0.098286
vt 0.278633 -0.000606
vt 0.362556 0.098286
vt 0.505550 0.924583
vt 0.599192 0.924584
vt 0.555685 0.983638
vt 0.360891 0.597432
vt 0.360891 0.710338
vt 0.277673 0.648007
vt 0.526704 0.094366
vt 0.243043 0.148259
vt 0.526704 0.207272
vt 0.465701 0.357512
vt 0.465701 0.476913
vt 0.362481 0.403265
vt 0.415478 0.694493
vt 0.479315 0.601367
vt 0.515321 0.694493
vt 0.566660 0.470420
vt 0.566660 0.357514
vt 0.282998 0.411406
vt 0.300984 0.683719
vt 0.357436 0.601367
vt 0.413888 0.683719
vt 0.431261 0.207272
vt 0.431261 0.087666
vt 0.525115 0.173208
vt 0.475387 0.636627
vt 0.371207 0.680149
vt 0.371207 0.577873
vt 0.559194 0.502396
vt 0.559194 0.599778
vt 0.470664 0.553610
vt 0.272208 0.779291
vt 0.159301 0.779291
vt 0.215755 0.696938
vt 0.574756 0.478502
vt 0.574756 0.591408
vt 0.476977 0.534956
vt 0.576346 0.785541
vt 0.251359 0.700628
vt 0.307811 0.782981
vt 0.596126 0.787130
vt 0.307811 0.848408
vt 0.596126 0.886974
vt 0.272884 0.255583
vt 0.216431 0.353363
vt 0.541418 0.258143
vt 0.345406 0.888471
vt 0.309401 0.795344
vt 0.409245 0.795344
vt 0.244633 0.119333
vt 0.361636 0.119333
vt 0.309875 0.204712
vt 0.032752 0.467674
vt 0.100093 0.366276
vt 0.149755 0.467674
vt 0.179082 0.816884
vt 0.272208 0.780880
vt 0.272208 0.880725
vt 0.266828 0.890060
vt 0.409245 0.890060
vt 0.322466 0.947261
vt 0.251180 0.246079
vt 0.357778 0.208862
vt 0.357778 0.340522
vt 0.159303 0.357512
vt 0.249591 0.446543
vt 0.159303 0.489172
vt 0.329827 0.207272
vt 0.376481 0.081441
vt 0.429672 0.207272
vt 0.151345 0.355923
vt 0.151345 0.208862
vt 0.249591 0.264502
vt 0.373240 0.700628
vt 0.409246 0.793755
vt 0.309401 0.793755
vt 0.427983 0.098286
vt 0.364145 0.005159
vt 0.463990 0.005159
vt 0.036848 0.469264
vt 0.149755 0.469264
vt 0.093301 0.567044
vt 0.439384 0.765680
vt 0.475387 0.858806
vt 0.375543 0.858806
vt 0.149755 0.748622
vt 0.036849 0.748622
vt 0.093301 0.666268
vt 0.475387 0.478502
vt 0.418935 0.576283
vt 0.362481 0.478502
vt 0.473303 0.353363
vt 0.373459 0.353363
vt 0.409463 0.260235
vt 0.272208 0.882315
vt 0.272207 0.972921
vt 0.181036 0.932218
vt 0.399496 0.860396
vt 0.475387 0.943994
vt 0.364555 0.943994
vt 0.566895 0.592998
vt 0.566895 0.700451
vt 0.476977 0.657794
vt 0.445824 0.237830
vt 0.539828 0.237830
vt 0.514504 0.355923
vt 0.362712 0.945583
vt 0.475387 0.945583
vt 0.439923 0.999205
vt 0.507070 0.000795
vt 0.507070 0.080592
vt 0.442809 0.002677
vt 0.373954 0.765680
vt 0.310113 0.858805
vt 0.274109 0.765680
vt 0.272208 0.588542
vt 0.159303 0.588542
vt 0.215755 0.490762
vt 0.410836 0.736633
vt 0.503963 0.700628
vt 0.503963 0.800471
vt 0.433071 0.599778
vt 0.369231 0.506650
vt 0.469075 0.506650
vt 0.565070 0.470420
vt 0.467291 0.413967
vt 0.565070 0.357512
vt 0.285289 0.486870
vt 0.367642 0.543326
vt 0.285289 0.599778
vt 0.555932 0.248124
vt 0.555932 0.353363
vt 0.474892 0.306445
vt 0.036848 0.568634
vt 0.149755 0.568634
vt 0.079865 0.664679
vt 0.568181 0.092777
vt 0.526704 0.001954
vt 0.263294 -0.000606
vt 0.000795 0.065630
vt 0.165378 0.000795
vt 0.165378 0.122788
vt 0.151345 0.207272
vt 0.212054 0.124378
vt 0.328237 0.207272
vt 0.476979 0.956613
vt 0.562018 0.904908
vt 0.238263 0.954053
vt 0.000795 0.250411
vt 0.000795 0.124378
vt 0.149755 0.214741
vt 0.251180 0.470418
vt 0.251180 0.357512
vt 0.360891 0.408387
vt 0.505550 0.802061
vt 0.572243 0.877904
vt 0.505550 0.922994
vt 0.415221 0.077046
vt 0.288048 0.000795
vt 0.441219 0.000795
vt 0.149755 0.349341
vt 0.037897 0.364687
vt 0.037897 0.252000
vt 0.605157 0.793570
vt 0.505552 0.800471
vt 0.505552 0.740871
vt 0.294809 0.253994
vt 0.541418 0.256554
vt 0.229734 0.213692
vt 0.286458 0.063256
vt 0.166967 0.113701
vt 0.166967 0.000795
vt 0.475387 0.681738
vt 0.418935 0.764091
vt 0.362481 0.681738
vt 0.149755 0.939642
vt 0.080266 0.995341
vt 0.027761 0.939642
vt 0.410836 0.903494
vt 0.484186 0.903494
vt 0.414677 0.992468
vt 0.299394 0.644146
vt 0.576346 0.701599
vt 0.576346 0.603927
vn 0.102381 -0.943523 0.315090
vn 0.635327 -0.769470 0.065388
vn -0.268034 -0.943523 0.194736
vn -0.268034 -0.943523 -0.194736
vn 0.102381 -0.943524 -0.315090
vn 0.891017 -0.453968 -0.001666
vn 0.303789 -0.187449 0.934117
vn -0.941748 -0.263587 0.208883
vn -0.574602 -0.330388 -0.748783
vn 0.534576 -0.330387 -0.777864
vn 0.802609 -0.125627 0.583126
vn -0.128625 0.002757 0.991689
vn -0.992077 -0.125628 0.000000
vn -0.306569 -0.125629 -0.943522
vn 0.802609 -0.125627 -0.583126
vn -0.319277 0.933002 -0.166041
vn -0.133699 0.810571 0.570175
vn -0.700224 0.661699 -0.268032
vn 0.037090 0.654971 -0.754743
vn 0.769172 0.638573 -0.024485
vn 0.282313 -0.828883 0.482963
vn 0.187594 -0.794658 0.577346
vn 0.355563 -0.726710 0.587765
vn 0.700224 -0.661699 -0.268032
vn 0.607060 -0.794656 0.000000
vn 0.331305 -0.943524 0.000000
vn -0.737926 -0.674384 -0.025915
vn -0.241381 -0.954453 0.175371
vn -0.174200 -0.897340 0.405506
vn -0.408946 -0.661699 -0.628425
vn -0.491119 -0.794657 -0.356821
vn -0.724042 -0.661695 -0.194736
vn 0.471300 -0.661699 -0.583122
vn 0.187594 -0.794658 -0.577346
vn -0.038530 -0.661699 -0.748779
vn 0.923388 0.290397 -0.251048
vn 0.914025 -0.320632 -0.248502
vn 0.904989 -0.330385 -0.268032
vn 0.237445 0.246200 0.939684
vn 0.238767 -0.223883 0.944916
vn 0.418142 -0.392068 0.819414
vn -0.829212 0.162593 0.534762
vn -0.869054 -0.116623 0.480776
vn -0.574602 -0.330388 0.748784
vn -0.802609 0.125627 -0.583126
vn -0.794656 -0.187595 -0.577348
vn -0.889697 -0.330385 -0.315095
vn 0.306569 0.125629 -0.943522
vn 0.303531 -0.187597 -0.934171
vn 0.024747 -0.330386 -0.943521
vn 0.443133 0.609925 0.656981
vn 0.687982 0.526152 0.499845
vn 0.702754 0.608135 0.369200
vn -0.517649 0.380415 0.766371
vn -0.146270 0.065533 0.987072
vn 0.114477 0.352776 0.928679
vn -0.904989 0.330385 -0.268031
vn -0.982246 0.187598 0.000000
vn -0.904989 0.330385 0.268031
vn -0.024747 0.330386 -0.943521
vn -0.303531 0.187597 -0.934171
vn -0.534576 0.330386 -0.777865
vn 0.969979 0.208882 -0.124538
vn 0.809018 -0.001571 -0.587783
vn 0.498403 0.270355 -0.823712
vn 0.158115 0.689068 0.707237
vn -0.350280 0.828847 0.436253
vn 0.588238 0.734460 0.338444
vn 0.416223 0.667229 0.617709
vn 0.491732 0.794431 0.356480
vn -0.173074 0.961306 -0.214326
vn -0.163928 0.917530 0.362307
vn -0.405573 0.850181 0.335713
vn -0.276087 0.938600 0.206895
vn -0.037226 0.989599 -0.138955
vn -0.153507 0.805039 -0.573017
vn -0.471300 0.661699 -0.583122
vn 0.222305 0.968808 0.109506
vn 0.503546 0.814764 -0.287404
vn 0.372584 0.602863 -0.705505
usemtl Material.003
s off
f 1/1/1 14/2/1 13/3/1
f 2/4/2 14/5/2 16/6/2
f 1/7/3 13/8/3 18/9/3
f 1/10/4 18/11/4 20/12/4
f 1/13/5 20/14/5 17/15/5
f 2/16/6 16/17/6 23/18/6
f 3/19/7 15/20/7 25/21/7
f 4/22/8 19/23/8 27/24/8
f 5/25/9 21/26/9 29/27/9
f 6/28/10 22/29/10 31/30/10
f 2/31/11 23/32/11 26/33/11
f 3/34/12 25/35/12 28/36/12
f 4/37/13 27/38/13 30/39/13
f 5/40/14 29/41/14 32/42/14
f 6/43/15 31/44/15 24/45/15
f 7/46/16 33/47/16 38/48/16
f 8/49/17 34/50/17 40/51/17
f 9/52/18 35/53/18 41/54/18
f 10/55/19 36/56/19 42/57/19
f 11/58/20 37/59/20 39/60/20
f 13/61/21 15/62/21 3/63/21
f 13/64/22 14/65/22 15/66/22
f 14/67/23 2/68/23 15/69/23
f 16/70/24 17/71/24 6/72/24
f 16/73/25 14/74/25 17/75/25
f 14/76/26 1/77/26 17/78/26
f 18/79/27 19/80/27 4/81/27
f 18/82/28 13/83/28 19/84/28
f 13/85/29 3/86/29 19/87/29
f 20/88/30 21/89/30 5/90/30
f 20/91/31 18/92/31 21/93/31
f 18/94/32 4/95/32 21/96/32
f 17/97/33 22/98/33 6/99/33
f 17/100/34 20/101/34 22/102/34
f 20/103/35 5/104/35 22/105/35
f 23/106/36 24/107/36 11/108/36
f 23/109/37 16/110/37 24/111/37
f 16/112/38 6/113/38 24/114/38
f 25/115/39 26/116/39 7/117/39
f 25/118/40 15/119/40 26/120/40
f 15/121/41 2/122/41 26/123/41
f 27/124/42 28/125/42 8/126/42
f 27/127/43 19/128/43 28/129/43
f 19/130/44 3/131/44 28/132/44
f 29/133/45 30/134/45 9/135/45
f 29/136/46 21/137/46 30/138/46
f 21/139/47 4/140/47 30/141/47
f 31/142/48 32/143/48 10/144/48
f 31/145/49 22/146/49 32/147/49
f 22/148/50 5/149/50 32/150/50
f 26/151/51 33/152/51 7/153/51
f 26/154/52 23/155/52 33/156/52
f 23/157/53 11/158/53 33/159/53
f 28/160/54 34/161/54 8/162/54
f 28/163/55 25/164/55 34/165/55
f 25/166/56 7/167/56 34/168/56
f 30/169/57 35/170/57 9/171/57
f 30/172/58 27/173/58 35/174/58
f 27/175/59 8/176/59 35/177/59
f 32/178/60 36/179/60 10/180/60
f 32/181/61 29/182/61 36/183/61
f 29/184/62 9/185/62 36/186/62
f 24/187/63 37/188/63 11/189/63
f 24/190/64 31/191/64 37/192/64
f 31/193/65 10/194/65 37/195/65
f 38/196/66 39/197/66 12/198/66
f 38/199/67 33/200/67 39/201/67
f 33/202/68 11/203/68 39/204/68
f 40/205/69 38/206/69 12/207/69
f 40/208/70 34/209/70 38/210/70
f 34/211/71 7/212/71 38/213/71
f 41/214/72 40/215/72 12/216/72
f 41/217/73 35/218/73 40/219/73
f 35/220/74 8/221/74 40/222/74
f 42/223/75 41/224/75 12/225/75
f 42/226/76 36/227/76 41/228/76
f 36/229/77 9/230/77 41/231/77
f 39/232/78 42/233/78 12/234/78
f 39/235/79 37/236/79 42/237/79
f 37/238/80 10/239/80 42/240/80
