# Blender v2.74 (sub 0) OBJ File: 'rock1.blend'
# www.blender.org
mtllib rock2.mtl
o Icosphere
v 0.509470 -1.669294 -1.208004
v 2.543202 -0.960982 -0.754308
v 0.662128 -0.656785 1.389793
v -0.994326 -0.565695 0.471041
v -0.547140 -0.735598 -2.214428
v 1.252162 -0.435178 -2.311937
v -0.065369 0.382588 1.337890
v -1.545397 0.763183 0.215332
v 0.228649 0.870202 -2.261936
v 1.477423 0.632632 -1.696605
v 2.226126 0.700828 -0.522889
v 0.646064 1.439497 -0.882750
v 1.021155 -1.611996 0.866005
v 1.641396 -1.110948 -1.387022
v 2.077634 -1.047749 -0.303753
v 2.135472 -0.790820 -1.913649
v 0.635470 -1.216506 -2.284465
v -0.265414 -1.276314 0.201834
v -0.419629 -1.112851 0.927109
v -0.825552 -1.427176 -0.181960
v -1.464341 -0.774551 -0.551476
v 0.169521 -0.877723 -2.502103
v 2.641689 0.101367 -0.658647
v 2.383527 0.033243 -1.555914
v 0.052108 -0.371166 1.446475
v 1.140057 -0.517680 1.608057
v -1.519542 -0.001625 0.532551
v -0.784467 -0.001485 1.173152
v -0.109197 -0.034200 -2.030317
v -1.313070 0.058706 -0.688263
v 1.686045 0.205205 -2.282426
v 0.822961 0.321275 -2.780686
v 1.016487 1.008685 1.511093
v -0.936733 0.726845 0.736570
v -0.303099 0.941350 -1.755468
v 1.317643 1.344521 -2.540459
v 2.377159 0.714899 -0.781587
v 0.030857 1.474387 0.785437
v 1.523180 1.219563 -0.566108
v -0.692323 1.246073 -0.205828
v 0.705907 1.228508 -1.676527
v 1.902300 1.288181 -0.940935
vn 0.430500 -0.898900 -0.081400
vn 0.326100 -0.912100 -0.248500
vn -0.299200 -0.948900 0.100000
vn 0.054300 -0.953700 0.295700
vn -0.446400 -0.805000 -0.390800
vn 0.939200 -0.056600 -0.338600
vn 0.430700 0.889100 0.154700
vn -0.723800 -0.683900 0.091500
vn -0.731400 0.559200 -0.390300
vn 0.210900 -0.098100 -0.972600
vn 0.842500 -0.125300 0.523900
vn -0.419000 -0.906200 0.056800
vn -0.731300 -0.663900 -0.156500
vn -0.642400 0.543000 -0.540800
vn 0.617700 -0.387000 -0.684600
vn -0.386100 0.443400 0.808900
vn -0.292600 0.867600 0.402100
vn -0.228100 0.902100 -0.366200
vn 0.917900 -0.200000 -0.342600
vn 0.540400 0.762000 0.356900
vn 0.127800 0.944600 0.302200
vn 0.508500 0.594300 0.623100
vn 0.651200 0.352600 -0.672000
vn 0.104500 0.963100 -0.248100
vn -0.091700 0.993400 0.068500
vn -0.432200 0.882100 -0.187600
vn -0.268500 0.925700 -0.266300
vn -0.247400 0.937100 -0.246400
vn -0.576800 0.761900 -0.294700
vn -0.186500 0.978400 -0.089300
vn -0.598300 0.757200 0.262100
vn -0.383700 0.443600 0.809900
vn 0.221800 0.973100 0.061500
vn 0.314800 0.933500 0.171600
vn 0.570500 0.791400 0.219500
vn 0.771000 -0.474800 0.424300
vn 0.656400 0.569000 -0.495500
vn 0.384700 0.805500 -0.450700
vn 0.850400 -0.311600 -0.423900
vn -0.656800 0.458100 -0.598900
vn -0.166800 -0.185700 -0.968300
vn -0.693000 -0.074200 -0.717100
vn -0.704800 0.704400 -0.084400
vn -0.809200 -0.248200 -0.532500
vn -0.607400 0.311200 0.730900
vn -0.058700 0.504200 0.861600
vn -0.559000 0.032200 0.828500
vn -0.184600 0.047400 0.981700
vn 0.816200 0.102200 0.568600
vn 0.792600 0.458400 0.402000
vn 0.372400 0.807900 -0.456800
vn 0.412900 -0.413600 -0.811500
vn -0.374400 -0.011400 -0.927200
vn -0.736800 0.104100 -0.668100
vn -0.743300 0.025200 -0.668500
vn -0.902000 0.224300 0.368800
vn -0.631000 0.278900 0.723900
vn -0.613600 -0.357300 0.704200
vn -0.269600 -0.291700 0.917700
vn -0.129800 0.121500 0.984100
vn -0.158800 -0.968700 0.190700
vn 0.578100 -0.668000 0.468700
vn 0.763500 0.589200 -0.264400
vn 0.949900 -0.173000 -0.260200
vn 0.474700 0.226400 -0.850600
vn 0.262200 -0.239800 -0.934700
vn -0.423200 -0.824000 -0.376700
vn -0.313600 -0.885000 -0.344100
vn -0.572500 -0.749100 -0.333300
vn -0.551200 -0.068700 0.831500
vn -0.557500 -0.725000 0.404400
vn -0.695300 -0.718600 0.014100
vn -0.318500 -0.937000 0.143500
vn -0.143200 -0.516700 0.844100
vn 0.302800 -0.271100 -0.913700
vn 0.321500 -0.912500 -0.253000
vn 0.377600 -0.868500 -0.321100
vn 0.757100 -0.071500 0.649300
vn 0.380700 -0.919300 -0.099700
vn 0.172100 -0.985000 -0.011800
usemtl Material.001
s off
f 1//1 14//1 13//1
f 2//2 14//2 16//2
f 1//3 13//3 18//3
f 1//4 18//4 20//4
f 1//5 20//5 17//5
f 2//6 16//6 23//6
f 3//7 15//7 25//7
f 4//8 19//8 27//8
f 5//9 21//9 29//9
f 6//10 22//10 31//10
f 2//11 23//11 26//11
f 3//12 25//12 28//12
f 4//13 27//13 30//13
f 5//14 29//14 32//14
f 6//15 31//15 24//15
f 7//16 33//16 38//16
f 8//17 34//17 40//17
f 9//18 35//18 41//18
f 10//19 36//19 42//19
f 11//20 37//20 39//20
f 39//21 42//21 12//21
f 39//22 37//22 42//22
f 37//23 10//23 42//23
f 42//24 41//24 12//24
f 42//25 36//25 41//25
f 36//26 9//26 41//26
f 41//27 40//27 12//27
f 41//28 35//28 40//28
f 35//29 8//29 40//29
f 40//30 38//30 12//30
f 40//31 34//31 38//31
f 34//32 7//32 38//32
f 38//33 39//33 12//33
f 38//34 33//34 39//34
f 33//35 11//35 39//35
f 24//36 37//36 11//36
f 24//37 31//37 37//37
f 31//38 10//38 37//38
f 32//39 36//39 10//39
f 32//40 29//40 36//40
f 29//41 9//41 36//41
f 30//42 35//42 9//42
f 30//43 27//43 35//43
f 27//44 8//44 35//44
f 28//45 34//45 8//45
f 28//46 25//46 34//46
f 25//47 7//47 34//47
f 26//48 33//48 7//48
f 26//49 23//49 33//49
f 23//50 11//50 33//50
f 31//51 32//51 10//51
f 31//52 22//52 32//52
f 22//53 5//53 32//53
f 29//54 30//54 9//54
f 29//55 21//55 30//55
f 21//56 4//56 30//56
f 27//57 28//57 8//57
f 27//58 19//58 28//58
f 19//59 3//59 28//59
f 25//60 26//60 7//60
f 25//61 15//61 26//61
f 15//62 2//62 26//62
f 23//63 24//63 11//63
f 23//64 16//64 24//64
f 16//65 6//65 24//65
f 17//66 22//66 6//66
f 17//67 20//67 22//67
f 20//68 5//68 22//68
f 20//69 21//69 5//69
f 20//70 18//70 21//70
f 18//71 4//71 21//71
f 18//72 19//72 4//72
f 18//73 13//73 19//73
f 13//74 3//74 19//74
f 16//75 17//75 6//75
f 16//76 14//76 17//76
f 14//77 1//77 17//77
f 13//78 15//78 3//78
f 13//79 14//79 15//79
f 14//80 2//80 15//80
