# Blender v2.76 (sub 0) OBJ File: 'rock2.blend'
# www.blender.org
o Icosphere.001
v 0.509470 -1.669294 -1.208004
v 2.543202 -0.960982 -0.754308
v -0.547140 -0.735598 -2.214428
v -0.065369 0.382588 1.337890
v -1.545397 0.763183 0.215332
v 0.228649 0.870202 -2.261936
v 0.646064 1.439497 -0.882750
v 1.021155 -1.611996 0.866005
v 2.135472 -0.790820 -1.913649
v 0.635470 -1.216506 -2.284465
v -0.419629 -1.112851 0.927109
v -0.825552 -1.427176 -0.181960
v -1.464341 -0.774551 -0.551476
v 0.169521 -0.877723 -2.502103
v 2.641689 0.101367 -0.658647
v 2.383527 0.033243 -1.555914
v 0.052108 -0.371166 1.446475
v 1.140057 -0.517680 1.608057
v -1.519542 -0.001625 0.532551
v -0.784467 -0.001485 1.173152
v -1.313070 0.058706 -0.688263
v 1.686045 0.205205 -2.282426
v 0.822961 0.321275 -2.780686
v 1.016487 1.008685 1.511093
v -0.936733 0.726845 0.736570
v -0.303099 0.941350 -1.755468
v 1.317643 1.344521 -2.540459
v 2.377159 0.714899 -0.781587
v 0.030857 1.474387 0.785437
v -0.692323 1.246073 -0.205828
v 1.902300 1.288181 -0.940935
vn 0.842500 -0.125300 0.523900
vn -0.576800 0.761900 -0.294700
vn -0.186500 0.978400 -0.089300
vn -0.607400 0.311200 0.730900
vn 0.816200 0.102200 0.568600
vn -0.374400 -0.011400 -0.927200
vn -0.631000 0.278900 0.723900
vn -0.613600 -0.357300 0.704200
vn -0.572500 -0.749100 -0.333300
vn -0.166400 -0.521500 0.836900
vn -0.211100 0.967300 -0.140900
vn -0.351600 0.897900 -0.264900
vn -0.446600 0.692800 -0.566200
vn -0.640000 0.288100 -0.712400
vn -0.800000 0.263900 -0.538800
vn -0.873600 0.079800 -0.480000
vn 0.353400 -0.888700 -0.292100
vn -0.404700 0.406400 0.819200
vn -0.483800 0.813500 0.322700
vn -0.192300 -0.966800 0.168300
vn 0.119200 0.992800 -0.008600
vn 0.496000 -0.036100 -0.867600
vn -0.381700 0.382100 -0.841600
vn 0.777600 0.570700 -0.264100
vn -0.370800 -0.163300 0.914200
vn -0.515000 0.224300 -0.827300
vn -0.353700 -0.798900 -0.486400
vn 0.363300 -0.267200 -0.892600
vn -0.985800 0.030400 -0.165200
vn -0.734400 -0.554000 0.392100
vn -0.399500 -0.842200 -0.362000
vn 0.799900 0.429000 0.419700
vn 0.683400 0.655400 0.321600
vn 0.224100 0.964600 0.138900
vn 0.728200 0.076400 -0.681000
vn 0.197700 -0.322800 -0.925600
vn 0.899800 0.331100 -0.284000
vn -0.167400 0.070900 0.983300
vn 0.945300 -0.098900 -0.311000
vn -0.807400 0.346400 -0.477600
vn -0.385000 0.443500 0.809400
vn 0.339800 -0.938700 -0.057900
vn 0.737400 -0.432100 0.519100
vn 0.821200 0.305600 -0.481900
s off
f 2//1 15//1 18//1
f 26//2 5//2 30//2
f 30//3 29//3 7//3
f 20//4 25//4 5//4
f 18//5 15//5 24//5
f 14//6 3//6 23//6
f 19//7 20//7 5//7
f 19//8 11//8 20//8
f 12//9 13//9 3//9
f 18//10 17//10 11//10 8//10
f 7//11 27//11 30//11
f 27//12 26//12 30//12
f 27//13 6//13 26//13
f 6//14 3//14 26//14
f 3//15 21//15 26//15
f 3//16 13//16 21//16
f 9//17 2//17 1//17 10//17
f 4//18 25//18 20//18
f 29//19 30//19 5//19 25//19
f 1//20 8//20 11//20 12//20
f 31//21 27//21 7//21
f 22//22 23//22 27//22
f 23//23 6//23 27//23
f 31//24 28//24 27//24
f 17//25 4//25 20//25 11//25
f 23//26 3//26 6//26
f 14//27 10//27 3//27
f 9//28 10//28 23//28 22//28
f 13//29 19//29 5//29 21//29
f 12//30 11//30 19//30 13//30
f 1//31 12//31 3//31 10//31
f 15//32 28//32 24//32
f 28//33 31//33 24//33
f 31//34 7//34 29//34 24//34
f 16//35 9//35 22//35
f 10//36 14//36 23//36
f 15//37 16//37 28//37
f 24//38 4//38 17//38 18//38
f 2//39 9//39 16//39 15//39
f 26//40 21//40 5//40
f 24//41 29//41 25//41 4//41
f 2//42 8//42 1//42
f 2//43 18//43 8//43
f 16//44 22//44 27//44 28//44
