# Blender v2.74 (sub 0) OBJ File: 'rock2.blend'
# www.blender.org
mtllib rock3.mtl
o Icosphere
v 0.558132 -0.913845 -1.241691
v 2.619928 -0.315810 -0.418974
v 0.599422 -0.224996 1.218962
v -1.174052 -0.107996 0.235477
v -0.564026 -0.160535 -1.975582
v 1.214951 0.183518 -2.121372
v 0.060130 0.778602 1.266976
v -1.579264 1.373945 0.187559
v 0.209993 1.430010 -1.986214
v 1.539612 1.223138 -1.798590
v 2.172748 1.109020 -0.277414
v 0.683588 1.859089 -0.701556
v 0.874328 -0.770531 0.403340
v 1.594935 -0.475190 -1.090235
v 2.018566 -0.607634 -0.443626
v 2.160616 -0.330924 -1.724572
v 0.652733 -0.493559 -2.051926
v -0.272213 -0.655825 0.135833
v -0.458045 -0.342717 0.823895
v -0.987242 -0.682761 -0.003991
v -1.348920 -0.143470 -0.687991
v 0.151281 -0.231833 -2.254554
v 2.606999 0.971194 -0.701567
v 2.475837 0.559036 -1.529150
v 0.311212 0.269803 1.736991
v 1.120022 0.219809 1.636093
v -1.509188 0.483030 0.534779
v -0.775310 0.613957 1.093359
v -0.146877 0.558045 -2.009763
v -1.163057 0.669180 -0.609928
v 1.684417 0.819164 -2.272886
v 0.676385 0.742683 -2.598567
v 1.176400 1.177624 0.935448
v -0.645869 1.345337 0.696898
v -0.327360 1.436081 -1.696521
v 1.361896 1.983006 -2.662381
v 2.146547 1.225272 -0.961461
v -0.171145 1.960737 0.821001
v 1.442671 1.693323 -0.248917
v -0.447203 1.681483 -0.346783
v 0.731580 1.823427 -1.667434
v 1.905615 1.983398 -0.936041
vn 0.389000 -0.921200 0.005500
vn 0.188500 -0.980500 -0.054900
vn -0.124300 -0.986200 0.109800
vn 0.000900 -0.982800 0.184600
vn -0.472700 -0.758500 -0.448600
vn 0.941700 -0.063100 -0.330600
vn 0.695600 -0.285200 0.659400
vn -0.614500 -0.604900 0.506400
vn -0.770500 0.424700 -0.475300
vn 0.268000 -0.406200 -0.873600
vn 0.816700 0.131600 0.561800
vn -0.497000 -0.748700 0.438600
vn -0.884200 -0.338100 -0.322300
vn -0.598000 0.312000 -0.738300
vn 0.484900 -0.524900 -0.699600
vn 0.139000 0.373200 0.917300
vn -0.125000 0.951100 0.282500
vn -0.277900 0.799700 -0.532200
vn 0.947200 -0.117600 -0.298300
vn 0.623800 0.774100 0.107700
vn -0.022000 0.926300 0.376200
vn 0.762600 0.222000 0.607500
vn 0.779900 0.266800 -0.566100
vn -0.109100 0.993100 -0.042100
vn -0.166700 0.984600 0.052300
vn -0.513800 0.836300 -0.191400
vn -0.168700 0.984700 -0.044700
vn -0.332000 0.922400 -0.197200
vn -0.342700 0.918500 -0.197400
vn -0.207700 0.961300 -0.180800
vn -0.795300 0.604700 0.043400
vn -0.501300 0.217800 0.837400
vn 0.189800 0.981000 0.041000
vn 0.423000 0.792100 0.440000
vn 0.573800 0.695800 0.432000
vn 0.907800 0.417800 0.036200
vn 0.615900 0.664700 -0.422900
vn 0.577100 0.700200 -0.420200
vn 0.730600 -0.431100 -0.529500
vn -0.598800 0.292600 -0.745500
vn -0.578100 0.257500 -0.774300
vn -0.390500 -0.583400 -0.712100
vn -0.752800 0.646800 -0.122400
vn -0.797200 -0.272600 -0.538700
vn -0.405900 0.490000 0.771400
vn -0.321600 0.494600 0.807400
vn -0.082100 0.654100 0.751900
vn 0.029300 0.589000 0.807600
vn 0.719200 0.382200 0.580300
vn 0.678100 0.511200 0.528100
vn 0.140500 0.774500 -0.616800
vn 0.304500 -0.458800 -0.834800
vn -0.371300 -0.124700 -0.920100
vn -0.753300 0.323800 -0.572500
vn -0.777900 0.233900 -0.583300
vn -0.963400 0.203600 0.174600
vn -0.614500 0.244000 0.750200
vn -0.514000 -0.386200 0.765900
vn -0.293800 -0.348200 0.890200
vn 0.130400 0.706700 0.695400
vn -0.012000 -0.930900 0.365200
vn 0.367900 -0.798400 0.476600
vn -0.131100 0.895500 -0.425200
vn 0.941100 -0.337500 0.018900
vn 0.411300 0.054100 -0.909900
vn 0.227700 -0.284600 -0.931200
vn -0.323300 -0.882900 -0.340400
vn -0.206900 -0.933900 -0.291800
vn -0.545100 -0.774000 -0.322000
vn -0.157000 0.733500 0.661300
vn -0.504500 -0.853800 0.128300
vn -0.482000 -0.839200 0.251700
vn -0.177100 -0.913000 0.367600
vn -0.103700 -0.842500 0.528600
vn 0.232700 -0.288500 -0.928800
vn 0.129800 -0.985600 -0.108400
vn 0.406800 -0.829400 -0.382800
vn 0.523400 -0.616200 0.588500
vn -0.006100 -0.980400 -0.196800
vn 0.408000 -0.804300 -0.432000
usemtl Material.001
s off
f 1//1 14//1 13//1
f 2//2 14//2 16//2
f 1//3 13//3 18//3
f 1//4 18//4 20//4
f 1//5 20//5 17//5
f 2//6 16//6 23//6
f 3//7 15//7 25//7
f 4//8 19//8 27//8
f 5//9 21//9 29//9
f 6//10 22//10 31//10
f 2//11 23//11 26//11
f 3//12 25//12 28//12
f 4//13 27//13 30//13
f 5//14 29//14 32//14
f 6//15 31//15 24//15
f 7//16 33//16 38//16
f 8//17 34//17 40//17
f 9//18 35//18 41//18
f 10//19 36//19 42//19
f 11//20 37//20 39//20
f 39//21 42//21 12//21
f 39//22 37//22 42//22
f 37//23 10//23 42//23
f 42//24 41//24 12//24
f 42//25 36//25 41//25
f 36//26 9//26 41//26
f 41//27 40//27 12//27
f 41//28 35//28 40//28
f 35//29 8//29 40//29
f 40//30 38//30 12//30
f 40//31 34//31 38//31
f 34//32 7//32 38//32
f 38//33 39//33 12//33
f 38//34 33//34 39//34
f 33//35 11//35 39//35
f 24//36 37//36 11//36
f 24//37 31//37 37//37
f 31//38 10//38 37//38
f 32//39 36//39 10//39
f 32//40 29//40 36//40
f 29//41 9//41 36//41
f 30//42 35//42 9//42
f 30//43 27//43 35//43
f 27//44 8//44 35//44
f 28//45 34//45 8//45
f 28//46 25//46 34//46
f 25//47 7//47 34//47
f 26//48 33//48 7//48
f 26//49 23//49 33//49
f 23//50 11//50 33//50
f 31//51 32//51 10//51
f 31//52 22//52 32//52
f 22//53 5//53 32//53
f 29//54 30//54 9//54
f 29//55 21//55 30//55
f 21//56 4//56 30//56
f 27//57 28//57 8//57
f 27//58 19//58 28//58
f 19//59 3//59 28//59
f 25//60 26//60 7//60
f 25//61 15//61 26//61
f 15//62 2//62 26//62
f 23//63 24//63 11//63
f 23//64 16//64 24//64
f 16//65 6//65 24//65
f 17//66 22//66 6//66
f 17//67 20//67 22//67
f 20//68 5//68 22//68
f 20//69 21//69 5//69
f 20//70 18//70 21//70
f 18//71 4//71 21//71
f 18//72 19//72 4//72
f 18//73 13//73 19//73
f 13//74 3//74 19//74
f 16//75 17//75 6//75
f 16//76 14//76 17//76
f 14//77 1//77 17//77
f 13//78 15//78 3//78
f 13//79 14//79 15//79
f 14//80 2//80 15//80
